<?xml version="1.0" standalone="no"?>
<!DOCTYPE svg PUBLIC "-//W3C//DTD SVG 20010904//EN"
 "http://www.w3.org/TR/2001/REC-SVG-20010904/DTD/svg10.dtd">
<svg version="1.0" xmlns="http://www.w3.org/2000/svg"
 width="200.000000pt" height="200.000000pt" viewBox="0 0 200.000000 200.000000"
 preserveAspectRatio="xMidYMid meet">
<metadata>
Created by potrace 1.14, written by Peter Selinger 2001-2017
</metadata>
<g transform="translate(0.000000,200.000000) scale(0.100000,-0.100000)"
fill="#000000" stroke="none">
<path d="M920 1965 c-158 -33 -288 -172 -303 -325 l-3 -35 -70 -2 c-223 -6
-388 -175 -385 -393 1 -79 27 -157 71 -219 36 -49 115 -113 161 -130 67 -25
64 -16 64 -165 l-1 -136 546 0 546 0 -1 139 0 138 59 24 c77 30 167 116 201
191 95 207 -9 457 -220 528 -58 20 -63 21 -137 22 -37 1 -65 4 -63 8 6 9 -19
107 -38 151 -25 56 -100 133 -164 166 -89 47 -167 58 -263 38z"/>
<path d="M461 470 c-3 -3 -7 -22 -7 -42 l-1 -38 543 0 c299 0 545 3 545 8 5
25 4 72 0 73 -23 4 -1074 3 -1080 -1z"/>
<path d="M456 295 c-2 -6 -2 -32 0 -58 8 -92 65 -168 149 -197 36 -13 103 -16
407 -15 355 1 364 1 405 23 54 28 81 56 105 110 19 42 32 141 19 143 -3 1
-248 2 -543 3 -365 1 -539 -2 -542 -9z"/>
</g>
</svg>
